<?xml version="1.0" standalone="no"?>
<!DOCTYPE svg PUBLIC "-//W3C//DTD SVG 20010904//EN"
 "http://www.w3.org/TR/2001/REC-SVG-20010904/DTD/svg10.dtd">
<svg version="1.0" xmlns="http://www.w3.org/2000/svg"
 width="483.000000pt" height="516.000000pt" viewBox="0 0 483.000000 516.000000"
 preserveAspectRatio="xMidYMid meet">

<g transform="translate(0.000000,516.000000) scale(0.100000,-0.100000)"
fill="#000000" stroke="none">
<path d="M2695 4921 c-136 -39 -276 -145 -327 -248 -22 -46 -23 -58 -23 -263
0 -249 -4 -266 -62 -257 -20 4 -86 31 -147 61 -193 96 -398 143 -661 153 -329
12 -668 -43 -801 -130 -69 -46 -96 -96 -91 -173 6 -113 77 -176 231 -204 70
-13 123 -12 551 10 105 5 263 13 351 16 l162 7 26 -26 c23 -23 25 -29 14 -47
-7 -12 -56 -45 -108 -74 -87 -49 -241 -138 -410 -237 -36 -21 -120 -68 -187
-105 -206 -112 -299 -225 -310 -378 -7 -94 9 -150 56 -197 74 -74 207 -77 343
-8 36 18 140 101 223 178 339 311 431 396 493 456 85 81 113 100 136 92 23 -9
20 -50 -8 -105 -61 -120 -147 -421 -168 -583 -20 -166 10 -297 88 -371 72 -71
132 -73 231 -9 118 76 207 212 249 381 26 104 27 392 2 497 -11 41 -18 110
-18 162 0 80 3 93 24 117 22 27 25 27 64 16 64 -19 186 -128 289 -257 18 -22
54 -67 80 -100 158 -200 293 -319 451 -397 99 -49 108 -52 186 -52 71 -1 87 2
127 26 135 79 91 229 -135 468 -118 124 -262 240 -439 353 -243 155 -252 161
-255 184 -5 31 35 54 124 69 91 16 159 51 238 124 67 62 118 136 137 199 12
42 13 42 48 36 46 -9 230 -30 436 -51 183 -18 496 -15 559 5 39 13 86 51 86
71 0 25 -52 60 -116 79 -82 23 -278 57 -424 71 -119 12 -495 39 -552 40 -26 0
-38 5 -38 14 0 8 -19 51 -42 95 -70 138 -180 235 -325 288 -54 19 -82 23 -181
22 -79 0 -136 -6 -177 -18z m273 -141 c181 -30 292 -157 293 -337 1 -103 -33
-185 -106 -259 -71 -72 -125 -94 -229 -94 -87 0 -141 -14 -172 -45 -62 -62 3
-167 206 -336 30 -25 156 -122 280 -215 266 -199 325 -252 356 -319 29 -61 30
-95 5 -126 -51 -63 -220 13 -384 174 -35 34 -119 125 -187 202 -172 195 -168
190 -240 250 -77 63 -171 115 -209 115 -47 0 -104 -21 -133 -50 l-28 -28 0
-320 c0 -287 -2 -327 -20 -398 -25 -99 -67 -189 -110 -237 -29 -34 -37 -38
-74 -35 -38 3 -43 6 -66 53 -21 43 -24 62 -23 140 2 121 22 210 81 357 57 141
75 203 92 307 19 118 3 171 -52 171 -30 0 -102 -32 -113 -51 -4 -6 -51 -43
-104 -82 -53 -39 -132 -100 -176 -137 -44 -36 -113 -92 -154 -123 -41 -32
-132 -114 -202 -182 -136 -131 -205 -175 -270 -175 -85 0 -120 46 -93 122 21
59 52 89 179 172 156 103 352 234 478 321 59 40 145 94 190 119 131 73 167
113 146 160 -21 45 -89 82 -199 107 -70 17 -377 16 -638 -2 -292 -19 -422 3
-430 75 -5 42 44 81 126 100 117 28 384 42 535 28 221 -20 450 -74 707 -167
102 -37 185 -33 231 10 62 59 70 94 68 293 -3 199 2 230 43 289 51 74 138 126
253 149 78 16 70 15 143 4z"/>
<path d="M2796 4567 c-60 -34 -80 -68 -80 -131 2 -101 61 -176 139 -176 48 0
134 40 165 78 106 128 -76 314 -224 229z"/>
<path d="M2264 2240 c-28 -11 -32 -18 -44 -81 -7 -35 -7 -64 1 -91 7 -29 6
-94 -7 -254 -16 -190 -16 -240 -6 -417 11 -172 36 -408 58 -549 8 -50 42 -72
95 -63 62 11 73 28 65 104 -3 37 -10 98 -16 136 -42 289 -49 505 -28 855 9
150 -3 332 -24 358 -12 14 -62 15 -94 2z"/>
<path d="M2877 2089 c-38 -22 -54 -85 -83 -324 -12 -103 -14 -207 -10 -495 2
-216 8 -376 14 -392 21 -53 108 -98 189 -98 188 0 421 180 486 374 20 58 22
194 4 246 -11 32 -17 36 -67 47 -30 6 -101 12 -157 12 -89 1 -110 -2 -160 -25
-32 -14 -75 -41 -95 -61 -21 -20 -41 -33 -45 -29 -13 13 -16 291 -4 398 7 57
21 140 32 186 22 96 24 143 7 160 -15 15 -86 15 -111 1z m427 -843 c14 -55
-23 -146 -76 -191 -46 -39 -181 -94 -232 -95 -13 0 3 108 24 163 42 109 94
146 206 147 68 0 72 -1 78 -24z"/>
<path d="M890 1971 c-41 -16 -97 -41 -125 -56 -44 -25 -141 -90 -155 -105 -3
-3 -36 -32 -73 -64 -81 -70 -155 -165 -200 -255 -31 -63 -32 -71 -32 -186 0
-119 1 -122 37 -196 95 -192 228 -267 486 -277 308 -11 539 92 771 344 121
131 171 212 171 278 0 16 -5 17 -37 11 -66 -12 -134 -57 -248 -165 -60 -58
-131 -121 -155 -141 -147 -119 -343 -173 -525 -145 -125 19 -198 49 -255 105
-58 55 -75 107 -67 198 18 194 241 403 521 490 111 34 149 65 144 120 -3 32
-8 41 -38 55 -52 26 -131 22 -220 -11z"/>
<path d="M4337 1856 c-12 -12 -38 -41 -58 -62 -20 -21 -60 -57 -87 -79 -58
-46 -86 -89 -81 -125 4 -22 9 -25 55 -28 49 -3 53 -1 73 31 22 37 81 88 143
126 43 26 78 70 78 98 0 26 -44 63 -76 63 -13 0 -35 -11 -47 -24z"/>
<path d="M2522 1783 c-31 -27 -35 -56 -13 -84 16 -20 28 -24 74 -23 86 2 129
41 104 92 -11 25 -18 27 -78 30 -52 2 -70 -1 -87 -15z"/>
<path d="M2546 1518 c-10 -17 -15 -78 -20 -233 -3 -115 -9 -258 -12 -316 -8
-124 4 -172 45 -193 24 -13 32 -12 74 7 l47 22 0 260 c-1 239 -15 433 -35 465
-3 5 -24 10 -45 10 -30 0 -43 -5 -54 -22z"/>
<path d="M4216 1518 c-13 -18 -16 -52 -16 -163 0 -77 -5 -216 -11 -310 -14
-198 -7 -240 40 -267 28 -15 32 -15 76 5 l47 22 -5 310 c-3 196 -9 331 -17
368 l-13 57 -43 0 c-33 0 -46 -5 -58 -22z"/>
<path d="M3978 1500 c-52 -15 -94 -49 -182 -145 -48 -52 -91 -95 -96 -95 -4 0
-11 20 -14 44 -9 59 -43 91 -98 89 -96 -4 -99 -51 -27 -368 5 -22 15 -72 22
-111 10 -61 17 -76 49 -105 28 -27 41 -33 60 -28 55 14 64 26 77 96 24 122 76
245 139 333 37 52 131 138 182 168 25 14 47 27 49 28 7 6 -31 79 -47 92 -18
13 -73 15 -114 2z"/>
<path d="M1868 1367 c-15 -7 -36 -24 -48 -39 -12 -15 -37 -35 -55 -44 -47 -22
-59 -68 -60 -224 0 -112 2 -130 24 -170 63 -121 145 -154 265 -109 39 14 68
34 97 67 57 65 77 109 91 197 22 142 -25 275 -114 321 -33 17 -162 18 -200 1z
m114 -134 c29 -34 41 -67 40 -118 0 -64 -19 -111 -61 -153 -68 -67 -96 -33
-94 113 l2 100 40 38 c46 42 52 44 73 20z"/>
<path d="M2251 606 c-8 -10 -12 -38 -9 -78 3 -62 3 -63 -26 -68 -62 -11 -57
-66 7 -72 31 -3 32 -4 42 -73 10 -69 10 -70 40 -70 28 0 30 2 30 40 -1 22 -3
58 -5 80 l-5 40 40 5 c52 7 65 16 65 46 0 13 -6 25 -12 25 -7 1 -33 2 -58 3
l-45 1 -10 65 c-11 68 -29 86 -54 56z"/>
<path d="M1658 558 c-41 -54 -50 -78 -84 -212 -31 -121 -32 -130 -16 -142 21
-16 52 -18 52 -3 0 6 7 35 16 65 l15 54 65 0 64 0 15 -37 c23 -60 30 -68 59
-71 35 -4 34 19 -2 129 -16 46 -35 108 -42 137 -25 107 -93 145 -142 80z m81
-116 c12 -43 8 -52 -27 -52 -52 0 -59 14 -34 65 19 39 25 45 37 35 8 -7 19
-28 24 -48z"/>
<path d="M3784 555 c-7 -18 12 -45 32 -45 15 0 28 35 19 50 -9 15 -45 12 -51
-5z"/>
<path d="M2559 536 c-64 -44 -89 -137 -55 -203 36 -71 149 -109 189 -65 15 16
23 41 15 43 -2 0 -23 3 -48 5 -65 8 -69 20 -9 28 54 7 89 21 101 40 11 17 9
92 -3 119 -27 59 -127 76 -190 33z m112 -46 c11 -6 19 -21 19 -35 0 -30 -26
-45 -79 -45 -56 0 -61 17 -18 57 40 36 48 38 78 23z"/>
<path d="M2863 531 c-61 -38 -50 -104 22 -128 88 -29 105 -52 65 -88 -19 -17
-21 -17 -74 10 -56 28 -76 27 -76 -5 0 -28 60 -69 111 -76 55 -7 104 21 125
71 13 31 12 39 -3 72 -17 36 -43 52 -127 78 -18 5 -18 6 -1 25 10 11 24 20 32
20 8 0 13 7 11 18 -5 24 -47 26 -85 3z"/>
<path d="M4323 531 c-17 -11 -34 -28 -37 -39 -7 -22 12 -72 27 -72 19 0 116
-52 121 -65 2 -7 -4 -22 -16 -34 -21 -24 -35 -22 -98 9 -66 33 -85 -10 -25
-56 70 -53 162 -37 200 37 31 60 -6 120 -87 139 -46 12 -52 11 -65 -6 -7 -10
-13 -13 -13 -5 0 15 49 66 69 72 22 8 5 39 -21 39 -13 0 -37 -9 -55 -19z"/>
<path d="M1906 511 c-10 -16 48 -256 65 -266 14 -9 46 4 53 20 3 8 -1 36 -9
62 -8 27 -15 56 -15 66 0 27 37 57 71 57 37 0 69 16 69 34 0 27 -69 35 -126
14 -27 -9 -35 -9 -49 5 -18 18 -50 23 -59 8z"/>
<path d="M3461 511 c-11 -7 -13 -27 -7 -97 3 -49 9 -108 12 -131 6 -41 8 -43
40 -43 l34 0 0 84 c0 80 1 86 27 106 36 28 75 23 83 -10 4 -15 4 -52 -1 -84
-9 -70 -4 -86 27 -86 29 0 41 25 47 101 5 72 -7 112 -44 143 -32 27 -42 27
-121 4 -31 -9 -39 -8 -53 6 -19 18 -24 19 -44 7z"/>
<path d="M3163 489 c-56 -27 -77 -62 -77 -125 0 -101 50 -132 197 -119 51 4
87 11 89 18 2 7 2 62 -1 122 l-6 110 -50 1 c-27 0 -63 3 -80 7 -21 4 -43 0
-72 -14z m115 -76 c28 -30 28 -63 0 -98 -18 -23 -26 -26 -56 -21 -43 7 -72 32
-72 63 0 29 25 79 42 86 24 9 63 -5 86 -30z"/>
<path d="M3983 489 c-23 -12 -50 -33 -59 -47 -25 -38 -23 -125 3 -160 26 -35
100 -55 157 -42 23 5 55 10 72 10 18 0 34 6 36 13 2 6 2 62 -1 122 l-6 110
-45 1 c-25 0 -61 3 -80 7 -25 4 -47 0 -77 -14z m115 -71 c29 -28 28 -69 -4
-103 -21 -22 -31 -26 -57 -21 -46 9 -70 42 -63 86 11 68 71 87 124 38z"/>
<path d="M3798 449 c-15 -8 -18 -25 -18 -104 0 -100 9 -119 53 -107 18 5 19
11 15 99 -6 102 -18 130 -50 112z"/>
</g>
</svg>
